ffmpeg started on 2016-12-09 at 19:37:00
Report written to "Output/x264/results/ffmpeg/crowd_run_2160p50placebo9000k.log"
Command line:
Tools/ffmpeg/ffmpeg -benchmark -y -i Input/y4m/crowd_run_2160p50.y4m -c:v libx264 -preset placebo -b:v 9000k -an Output/x264/encoded/crowd_run_2160p50placebo9000k.mkv
ffmpeg version N-82227-gdb23fde Copyright (c) 2000-2016 the FFmpeg developers
  built with gcc 5.4.0 (Ubuntu 5.4.0-6ubuntu1~16.04.2) 20160609
  configuration: --prefix=/home/jaroslav/ffmpeg_build --pkg-config-flags=--static --extra-cflags=-I/home/jaroslav/ffmpeg_build/include --extra-ldflags=-L/home/jaroslav/ffmpeg_build/lib --bindir=/home/jaroslav/bin --enable-gpl --enable-libass --enable-libfdk-aac --enable-libfreetype --enable-libmp3lame --enable-libopus --enable-libtheora --enable-libvorbis --enable-libvpx --enable-libx264 --enable-libx265 --enable-nvenc --enable-libmfx --enable-libxvid --enable-libgsm --enable-libopencore-amrnb --enable-version3 --enable-nonfree
  libavutil      55. 35.100 / 55. 35.100
  libavcodec     57. 66.101 / 57. 66.101
  libavformat    57. 57.100 / 57. 57.100
  libavdevice    57.  2.100 / 57.  2.100
  libavfilter     6. 66.100 /  6. 66.100
  libswscale      4.  3.100 /  4.  3.100
  libswresample   2.  4.100 /  2.  4.100
  libpostproc    54.  2.100 / 54.  2.100
Input #0, yuv4mpegpipe, from 'Input/y4m/crowd_run_2160p50.y4m':
  Duration: 00:00:10.00, start: 0.000000, bitrate: 4976642 kb/s
    Stream #0:0: Video: rawvideo (I420 / 0x30323449), yuv420p(progressive), 3840x2160, SAR 1:1 DAR 16:9, 50 fps, 50 tbr, 50 tbn, 50 tbc
[libx264 @ 0x43ff1c0] using SAR=1/1
[libx264 @ 0x43ff1c0] DPB size (16 frames, 518400 mbs) > level limit (5 frames, 184320 mbs)
[libx264 @ 0x43ff1c0] using cpu capabilities: MMX2 SSE2Fast SSSE3 SSE4.2 AVX FMA3 AVX2 LZCNT BMI2
[libx264 @ 0x43ff1c0] profile High, level 5.2
[libx264 @ 0x43ff1c0] 264 - core 148 - H.264/MPEG-4 AVC codec - Copyleft 2003-2016 - http://www.videolan.org/x264.html - options: cabac=1 ref=16 deblock=1:0:0 analyse=0x3:0x133 me=tesa subme=11 psy=1 psy_rd=1.00:0.00 mixed_ref=1 me_range=24 chroma_me=1 trellis=2 8x8dct=1 cqm=0 deadzone=21,11 fast_pskip=0 chroma_qp_offset=-2 threads=6 lookahead_threads=1 sliced_threads=0 nr=0 decimate=1 interlaced=0 bluray_compat=0 constrained_intra=0 bframes=16 b_pyramid=2 b_adapt=2 b_bias=0 direct=3 weightb=1 open_gop=0 weightp=2 keyint=250 keyint_min=25 scenecut=40 intra_refresh=0 rc_lookahead=60 rc=abr mbtree=1 bitrate=9000 ratetol=1.0 qcomp=0.60 qpmin=0 qpmax=69 qpstep=4 ip_ratio=1.40 aq=1:1.00
Output #0, matroska, to 'Output/x264/encoded/crowd_run_2160p50placebo9000k.mkv':
  Metadata:
    encoder         : Lavf57.57.100
    Stream #0:0: Video: h264 (libx264) (H264 / 0x34363248), yuv420p, 3840x2160 [SAR 1:1 DAR 16:9], q=-1--1, 9000 kb/s, 50 fps, 1k tbn, 50 tbc
    Metadata:
      encoder         : Lavc57.66.101 libx264
    Side data:
      cpb: bitrate max/min/avg: 0/0/9000000 buffer size: 0 vbv_delay: -1
Stream mapping:
  Stream #0:0 -> #0:0 (rawvideo (native) -> h264 (libx264))
Press [q] to stop, [?] for help
frame=   12 fps=0.0 q=0.0 size=       0kB time=00:00:00.00 bitrate=N/A speed=   0x    frame=   24 fps= 23 q=0.0 size=       0kB time=00:00:00.00 bitrate=N/A speed=   0x    frame=   32 fps= 20 q=0.0 size=       0kB time=00:00:00.00 bitrate=N/A speed=   0x    frame=   39 fps= 18 q=0.0 size=       0kB time=00:00:00.00 bitrate=N/A speed=   0x    frame=   46 fps= 17 q=0.0 size=       0kB time=00:00:00.00 bitrate=N/A speed=   0x    frame=   53 fps= 16 q=0.0 size=       0kB time=00:00:00.00 bitrate=N/A speed=   0x    frame=   60 fps= 16 q=0.0 size=       0kB time=00:00:00.00 bitrate=N/A speed=   0x    frame=   67 fps= 15 q=0.0 size=       0kB time=00:00:00.00 bitrate=N/A speed=   0x    frame=   76 fps= 15 q=0.0 size=       0kB time=00:00:00.00 bitrate=N/A speed=   0x    frame=   84 fps=3.2 q=0.0 size=       0kB time=00:00:00.00 bitrate=N/A speed=   0x    frame=   89 fps=3.1 q=43.0 size=       1kB time=-00:00:00.01 bitrate=N/A speed=N/A    frame=   90 fps=2.7 q=38.0 size=       1kB time=00:00:00.00 bitrate=5888.0kbits/s speed=3.03e-05x    frame=   91 fps=2.7 q=37.0 size=       1kB time=00:00:00.02 bitrate= 280.4kbits/s speed=0.000621x    frame=   92 fps=2.7 q=40.0 size=       1kB time=00:00:00.04 bitrate= 143.6kbits/s speed=0.00118x    frame=   95 fps=2.3 q=46.0 size=       1kB time=00:00:00.10 bitrate=  58.3kbits/s speed=0.00249x    frame=   96 fps=2.3 q=45.0 size=       1kB time=00:00:00.12 bitrate=  48.7kbits/s speed=0.00292x    frame=   97 fps=2.3 q=48.0 size=       1kB time=00:00:00.14 bitrate=  41.8kbits/s speed=0.00332x    frame=  100 fps=2.2 q=51.0 size=       1kB time=00:00:00.20 bitrate=  29.3kbits/s speed=0.00441x    frame=  101 fps=2.2 q=51.0 size=       1kB time=00:00:00.22 bitrate=  26.6kbits/s speed=0.00471x    frame=  102 fps=2.1 q=51.0 size=       1kB time=00:00:00.24 bitrate=  24.4kbits/s speed=0.00494x    frame=  105 fps=1.9 q=50.0 size=       1kB time=00:00:00.30 bitrate=  19.6kbits/s speed=0.0055x    frame=  106 fps=1.9 q=50.0 size=       1kB time=00:00:00.32 bitrate=  18.3kbits/s speed=0.00575x    frame=  107 fps=1.9 q=50.0 size=       1kB time=00:00:00.34 bitrate=  17.3kbits/s speed=0.00601x    frame=  111 fps=1.7 q=50.0 size=       1kB time=00:00:00.42 bitrate=  14.0kbits/s speed=0.00642x    frame=  112 fps=1.7 q=50.0 size=       1kB time=00:00:00.44 bitrate=  13.4kbits/s speed=0.00661x    frame=  113 fps=1.7 q=49.0 size=       1kB time=00:00:00.46 bitrate=  12.8kbits/s speed=0.00679x    frame=  115 fps=1.6 q=50.0 size=       1kB time=00:00:00.50 bitrate=  11.8kbits/s speed=0.00691x    frame=  116 fps=1.6 q=49.0 size=       1kB time=00:00:00.52 bitrate=  11.3kbits/s speed=0.00704x    frame=  117 fps=1.5 q=49.0 size=       1kB time=00:00:00.54 bitrate=  10.9kbits/s speed=0.00714x    frame=  119 fps=1.4 q=49.0 size=       1kB time=00:00:00.58 bitrate=  10.1kbits/s speed=0.007x    frame=  120 fps=1.4 q=49.0 size=       1kB time=00:00:00.60 bitrate=   9.8kbits/s speed=0.0071x    frame=  121 fps=1.4 q=49.0 size=       1kB time=00:00:00.62 bitrate=   9.5kbits/s speed=0.00721x    frame=  123 fps=1.3 q=49.0 size=       1kB time=00:00:00.66 bitrate=   8.9kbits/s speed=0.00716x    frame=  124 fps=1.3 q=49.0 size=       1kB time=00:00:00.68 bitrate=   8.6kbits/s speed=0.00728x    frame=  125 fps=1.3 q=49.0 size=       1kB time=00:00:00.70 bitrate=   8.4kbits/s speed=0.00741x    frame=  127 fps=1.2 q=49.0 size=       1kB time=00:00:00.74 bitrate=   7.9kbits/s speed=0.00713x    frame=  128 fps=1.2 q=49.0 size=       1kB time=00:00:00.76 bitrate=   7.7kbits/s speed=0.00723x    frame=  129 fps=1.2 q=49.0 size=       1kB time=00:00:00.78 bitrate=   7.5kbits/s speed=0.00731x    frame=  132 fps=1.2 q=49.0 size=       1kB time=00:00:00.84 bitrate=   7.0kbits/s speed=0.00743x    frame=  133 fps=1.1 q=49.0 size=       1kB time=00:00:00.86 bitrate=   6.8kbits/s speed=0.00739x    frame=  134 fps=1.1 q=49.0 size=       1kB time=00:00:00.88 bitrate=   6.7kbits/s speed=0.00747x    frame=  137 fps=1.1 q=49.0 size=       1kB time=00:00:00.94 bitrate=   6.3kbits/s speed=0.00742x    frame=  138 fps=1.1 q=49.0 size=       1kB time=00:00:00.96 bitrate=   6.1kbits/s speed=0.00747x    frame=  139 fps=1.1 q=49.0 size=       1kB time=00:00:00.98 bitrate=   6.0kbits/s speed=0.00754x    frame=  142 fps=1.0 q=49.0 size=       1kB time=00:00:01.04 bitrate=   5.7kbits/s speed=0.00752x    frame=  143 fps=1.0 q=49.0 size=       1kB time=00:00:01.06 bitrate=   5.5kbits/s speed=0.00758x    frame=  144 fps=1.0 q=49.0 size=       1kB time=00:00:01.08 bitrate=   5.4kbits/s speed=0.00764x    frame=  147 fps=1.0 q=48.0 size=       1kB time=00:00:01.14 bitrate=   5.2kbits/s speed=0.00765x    frame=  148 fps=1.0 q=48.0 size=       1kB time=00:00:01.16 bitrate=   5.1kbits/s speed=0.00772x    frame=  149 fps=1.0 q=48.0 size=       1kB time=00:00:01.18 bitrate=   5.0kbits/s speed=0.00781x    frame=  151 fps=0.9 q=48.0 size=       1kB time=00:00:01.22 bitrate=   4.8kbits/s speed=0.00762x    frame=  152 fps=0.9 q=48.0 size=       1kB time=00:00:01.24 bitrate=   4.7kbits/s speed=0.00766x    frame=  153 fps=0.9 q=48.0 size=       1kB time=00:00:01.26 bitrate=   4.7kbits/s speed=0.00772x    frame=  156 fps=0.9 q=48.0 size=       1kB time=00:00:01.32 bitrate=   4.5kbits/s speed=0.00785x    frame=  157 fps=0.9 q=48.0 size=       1kB time=00:00:01.34 bitrate=   4.4kbits/s speed=0.0078x    frame=  158 fps=0.9 q=48.0 size=       1kB time=00:00:01.36 bitrate=   4.3kbits/s speed=0.00785x    frame=  160 fps=0.9 q=48.0 size=       1kB time=00:00:01.40 bitrate=   4.2kbits/s speed=0.00771x    frame=  161 fps=0.9 q=48.0 size=       1kB time=00:00:01.42 bitrate=   4.1kbits/s speed=0.00774x    frame=  162 fps=0.9 q=48.0 size=       1kB time=00:00:01.44 bitrate=   4.1kbits/s speed=0.00779x    frame=  165 fps=0.9 q=48.0 size=       1kB time=00:00:01.50 bitrate=   3.9kbits/s speed=0.00784x    frame=  166 fps=0.9 q=48.0 size=       1kB time=00:00:01.52 bitrate=   3.9kbits/s speed=0.00784x    frame=  167 fps=0.9 q=48.0 size=       1kB time=00:00:01.54 bitrate=   3.8kbits/s speed=0.0079x    frame=  169 fps=0.8 q=48.0 size=       1kB time=00:00:01.58 bitrate=   3.7kbits/s speed=0.00778x    frame=  170 fps=0.8 q=48.0 size=       1kB time=00:00:01.60 bitrate=   3.7kbits/s speed=0.00783x    frame=  171 fps=0.8 q=48.0 size=       1kB time=00:00:01.62 bitrate=   3.6kbits/s speed=0.00787x    frame=  174 fps=0.8 q=48.0 size=       1kB time=00:00:01.68 bitrate=   3.5kbits/s speed=0.00781x    frame=  175 fps=0.8 q=48.0 size=       1kB time=00:00:01.70 bitrate=   3.5kbits/s speed=0.00785x    frame=  176 fps=0.8 q=48.0 size=       1kB time=00:00:01.72 bitrate=   3.4kbits/s speed=0.00789x    frame=  179 fps=0.8 q=48.0 size=       1kB time=00:00:01.78 bitrate=   3.3kbits/s speed=0.00786x    frame=  180 fps=0.8 q=48.0 size=       1kB time=00:00:01.80 bitrate=   3.3kbits/s speed=0.00791x    frame=  181 fps=0.8 q=48.0 size=       1kB time=00:00:01.82 bitrate=   3.2kbits/s speed=0.00796x    frame=  183 fps=0.8 q=48.0 size=       1kB time=00:00:01.86 bitrate=   3.2kbits/s speed=0.00788x    frame=  184 fps=0.8 q=48.0 size=       1kB time=00:00:01.88 bitrate=   3.1kbits/s speed=0.00792x    frame=  185 fps=0.8 q=48.0 size=       1kB time=00:00:01.90 bitrate=   3.1kbits/s speed=0.00797x    frame=  187 fps=0.8 q=47.0 size=       1kB time=00:00:01.94 bitrate=   3.0kbits/s speed=0.00784x    frame=  188 fps=0.8 q=47.0 size=       1kB time=00:00:01.96 bitrate=   3.0kbits/s speed=0.00788x    frame=  189 fps=0.8 q=47.0 size=       1kB time=00:00:01.98 bitrate=   3.0kbits/s speed=0.00793x    frame=  193 fps=0.7 q=47.0 size=       1kB time=00:00:02.06 bitrate=   2.9kbits/s speed=0.00782x    frame=  194 fps=0.7 q=47.0 size=       1kB time=00:00:02.08 bitrate=   2.8kbits/s speed=0.00786x    frame=  195 fps=0.7 q=47.0 size=       1kB time=00:00:02.10 bitrate=   2.8kbits/s speed=0.00791x    frame=  198 fps=0.7 q=47.0 size=       1kB time=00:00:02.16 bitrate=   2.7kbits/s speed=0.00801x    frame=  199 fps=0.7 q=47.0 size=       1kB time=00:00:02.18 bitrate=   2.7kbits/s speed=0.0079x    frame=  200 fps=0.7 q=47.0 size=       1kB time=00:00:02.20 bitrate=   2.7kbits/s speed=0.00794x    frame=  204 fps=0.7 q=47.0 size=       1kB time=00:00:02.28 bitrate=   2.6kbits/s speed=0.00792x    frame=  205 fps=0.7 q=47.0 size=       1kB time=00:00:02.30 bitrate=   2.6kbits/s speed=0.00795x    frame=  206 fps=0.7 q=47.0 size=       1kB time=00:00:02.32 bitrate=   2.5kbits/s speed=0.00799x    frame=  208 fps=0.7 q=47.0 size=       1kB time=00:00:02.36 bitrate=   2.5kbits/s speed=0.00792x    frame=  209 fps=0.7 q=47.0 size=       1kB time=00:00:02.38 bitrate=   2.5kbits/s speed=0.00796x    frame=  210 fps=0.7 q=47.0 size=       1kB time=00:00:02.40 bitrate=   2.5kbits/s speed=0.008x    frame=  211 fps=0.7 q=47.0 size=       1kB time=00:00:02.42 bitrate=   2.4kbits/s speed=0.00805x    frame=  214 fps=0.7 q=47.0 size=       1kB time=00:00:02.48 bitrate=   2.4kbits/s speed=0.0079x    frame=  215 fps=0.7 q=47.0 size=       1kB time=00:00:02.50 bitrate=   2.4kbits/s speed=0.00793x    frame=  216 fps=0.7 q=47.0 size=       1kB time=00:00:02.52 bitrate=   2.3kbits/s speed=0.00796x    frame=  219 fps=0.7 q=47.0 size=       1kB time=00:00:02.58 bitrate=   2.3kbits/s speed=0.00804x    frame=  220 fps=0.7 q=47.0 size=       1kB time=00:00:02.60 bitrate=   2.3kbits/s speed=0.00795x    frame=  221 fps=0.7 q=47.0 size=       1kB time=00:00:02.62 bitrate=   2.2kbits/s speed=0.00798x    frame=  225 fps=0.7 q=47.0 size=       1kB time=00:00:02.70 bitrate=   2.2kbits/s speed=0.00796x    frame=  226 fps=0.7 q=47.0 size=       1kB time=00:00:02.72 bitrate=   2.2kbits/s speed=0.00799x    frame=  227 fps=0.7 q=47.0 size=       1kB time=00:00:02.74 bitrate=   2.1kbits/s speed=0.00803x    frame=  229 fps=0.7 q=47.0 size=       1kB time=00:00:02.78 bitrate=   2.1kbits/s speed=0.00795x    frame=  230 fps=0.7 q=47.0 size=       1kB time=00:00:02.80 bitrate=   2.1kbits/s speed=0.00797x    frame=  231 fps=0.7 q=47.0 size=       1kB time=00:00:02.82 bitrate=   2.1kbits/s speed=0.008x    frame=  233 fps=0.7 q=47.0 size=       1kB time=00:00:02.86 bitrate=   2.1kbits/s speed=0.0081x    frame=  234 fps=0.6 q=47.0 size=       1kB time=00:00:02.88 bitrate=   2.0kbits/s speed=0.00795x    frame=  235 fps=0.6 q=47.0 size=       1kB time=00:00:02.90 bitrate=   2.0kbits/s speed=0.00798x    frame=  236 fps=0.6 q=47.0 size=       1kB time=00:00:02.92 bitrate=   2.0kbits/s speed=0.00801x    frame=  238 fps=0.6 q=47.0 size=       1kB time=00:00:02.96 bitrate=   2.0kbits/s speed=0.00795x    frame=  239 fps=0.6 q=47.0 size=       1kB time=00:00:02.98 bitrate=   2.0kbits/s speed=0.00796x    frame=  240 fps=0.6 q=47.0 size=       1kB time=00:00:03.00 bitrate=   2.0kbits/s speed=0.00798x    frame=  244 fps=0.6 q=47.0 size=       1kB time=00:00:03.08 bitrate=   1.9kbits/s speed=0.00789x    frame=  245 fps=0.6 q=47.0 size=       1kB time=00:00:03.10 bitrate=   1.9kbits/s speed=0.00792x    frame=  246 fps=0.6 q=47.0 size=       1kB time=00:00:03.12 bitrate=   1.9kbits/s speed=0.00794x    frame=  250 fps=0.6 q=47.0 size=       1kB time=00:00:03.20 bitrate=   1.8kbits/s speed=0.00787x    frame=  251 fps=0.6 q=47.0 size=       1kB time=00:00:03.22 bitrate=   1.8kbits/s speed=0.00789x    frame=  252 fps=0.6 q=47.0 size=       1kB time=00:00:03.24 bitrate=   1.8kbits/s speed=0.00792x    frame=  254 fps=0.6 q=47.0 size=       1kB time=00:00:03.28 bitrate=   1.8kbits/s speed=0.00801x    frame=  255 fps=0.6 q=47.0 size=       1kB time=00:00:03.30 bitrate=   1.8kbits/s speed=0.00797x    frame=  256 fps=0.6 q=47.0 size=       1kB time=00:00:03.32 bitrate=   1.8kbits/s speed=0.00788x    frame=  257 fps=0.6 q=47.0 size=       1kB time=00:00:03.34 bitrate=   1.8kbits/s speed=0.0079x    frame=  261 fps=0.6 q=47.0 size=       1kB time=00:00:03.42 bitrate=   1.7kbits/s speed=0.00789x    frame=  262 fps=0.6 q=47.0 size=       1kB time=00:00:03.44 bitrate=   1.7kbits/s speed=0.00791x    frame=  263 fps=0.6 q=47.0 size=       1kB time=00:00:03.46 bitrate=   1.7kbits/s speed=0.00792x    frame=  266 fps=0.6 q=47.0 size=       1kB time=00:00:03.52 bitrate=   1.7kbits/s speed=0.0079x    frame=  267 fps=0.6 q=47.0 size=       1kB time=00:00:03.54 bitrate=   1.7kbits/s speed=0.00791x    frame=  268 fps=0.6 q=47.0 size=       1kB time=00:00:03.56 bitrate=   1.7kbits/s speed=0.00793x    frame=  271 fps=0.6 q=47.0 size=       1kB time=00:00:03.62 bitrate=   1.6kbits/s speed=0.00789x    frame=  272 fps=0.6 q=47.0 size=       1kB time=00:00:03.64 bitrate=   1.6kbits/s speed=0.0079x    frame=  273 fps=0.6 q=47.0 size=       1kB time=00:00:03.66 bitrate=   1.6kbits/s speed=0.00792x    frame=  276 fps=0.6 q=47.0 size=       1kB time=00:00:03.72 bitrate=   1.6kbits/s speed=0.00793x    frame=  277 fps=0.6 q=47.0 size=       1kB time=00:00:03.74 bitrate=   1.6kbits/s speed=0.00791x    frame=  278 fps=0.6 q=47.0 size=       1kB time=00:00:03.76 bitrate=   1.6kbits/s speed=0.00794x    frame=  280 fps=0.6 q=47.0 size=       1kB time=00:00:03.80 bitrate=   1.5kbits/s speed=0.00788x    frame=  281 fps=0.6 q=47.0 size=       1kB time=00:00:03.82 bitrate=   1.5kbits/s speed=0.0079x    frame=  282 fps=0.6 q=47.0 size=       1kB time=00:00:03.84 bitrate=   1.5kbits/s speed=0.00791x    frame=  285 fps=0.6 q=46.0 size=       1kB time=00:00:03.90 bitrate=   1.5kbits/s speed=0.00788x    frame=  286 fps=0.6 q=46.0 size=       1kB time=00:00:03.92 bitrate=   1.5kbits/s speed=0.00789x    frame=  287 fps=0.6 q=46.0 size=       1kB time=00:00:03.94 bitrate=   1.5kbits/s speed=0.0079x    frame=  290 fps=0.6 q=46.0 size=       1kB time=00:00:04.00 bitrate=   1.5kbits/s speed=0.00789x    frame=  291 fps=0.6 q=47.0 size=       1kB time=00:00:04.02 bitrate=   1.5kbits/s speed=0.00791x    frame=  292 fps=0.6 q=47.0 size=       1kB time=00:00:04.04 bitrate=   1.5kbits/s speed=0.00792x    frame=  294 fps=0.6 q=46.0 size=       1kB time=00:00:04.08 bitrate=   1.4kbits/s speed=0.00786x    frame=  295 fps=0.6 q=46.0 size=       1kB time=00:00:04.10 bitrate=   1.4kbits/s speed=0.00787x    frame=  296 fps=0.6 q=46.0 size=       1kB time=00:00:04.12 bitrate=   1.4kbits/s speed=0.00789x    frame=  299 fps=0.6 q=46.0 size=       1kB time=00:00:04.18 bitrate=   1.4kbits/s speed=0.00786x    frame=  300 fps=0.6 q=46.0 size=       1kB time=00:00:04.20 bitrate=   1.4kbits/s speed=0.00788x    frame=  301 fps=0.6 q=46.0 size=       1kB time=00:00:04.22 bitrate=   1.4kbits/s speed=0.0079x    frame=  304 fps=0.6 q=46.0 size=       1kB time=00:00:04.28 bitrate=   1.4kbits/s speed=0.00787x    frame=  305 fps=0.6 q=46.0 size=       1kB time=00:00:04.30 bitrate=   1.4kbits/s speed=0.00789x    frame=  306 fps=0.6 q=46.0 size=       1kB time=00:00:04.32 bitrate=   1.4kbits/s speed=0.0079x    frame=  308 fps=0.6 q=46.0 size=       1kB time=00:00:04.36 bitrate=   1.4kbits/s speed=0.00784x    frame=  309 fps=0.6 q=46.0 size=       1kB time=00:00:04.38 bitrate=   1.3kbits/s speed=0.00786x    frame=  310 fps=0.6 q=46.0 size=       1kB time=00:00:04.40 bitrate=   1.3kbits/s speed=0.00787x    frame=  313 fps=0.6 q=46.0 size=       1kB time=00:00:04.46 bitrate=   1.3kbits/s speed=0.00784x    frame=  314 fps=0.6 q=46.0 size=       1kB time=00:00:04.48 bitrate=   1.3kbits/s speed=0.00786x    frame=  315 fps=0.6 q=46.0 size=    5121kB time=00:00:04.50 bitrate=9320.6kbits/s speed=0.00788x    frame=  317 fps=0.6 q=46.0 size=    5121kB time=00:00:04.54 bitrate=9238.5kbits/s speed=0.00794x    frame=  318 fps=0.5 q=46.0 size=    5121kB time=00:00:04.56 bitrate=9198.0kbits/s speed=0.00782x    frame=  319 fps=0.5 q=46.0 size=    5121kB time=00:00:04.58 bitrate=9157.9kbits/s speed=0.00784x    frame=  320 fps=0.5 q=46.0 size=    5121kB time=00:00:04.60 bitrate=9118.0kbits/s speed=0.00786x    frame=  323 fps=0.5 q=46.0 size=    5121kB time=00:00:04.66 bitrate=9000.7kbits/s speed=0.00782x    frame=  324 fps=0.5 q=46.0 size=    5121kB time=00:00:04.68 bitrate=8962.2kbits/s speed=0.00784x    frame=  325 fps=0.5 q=46.0 size=    5121kB time=00:00:04.70 bitrate=8924.1kbits/s speed=0.00786x    frame=  327 fps=0.5 q=46.0 size=    5121kB time=00:00:04.74 bitrate=8848.8kbits/s speed=0.00791x    frame=  328 fps=0.5 q=46.0 size=    5121kB time=00:00:04.76 bitrate=8811.6kbits/s speed=0.00781x    frame=  329 fps=0.5 q=46.0 size=    5121kB time=00:00:04.78 bitrate=8774.8kbits/s speed=0.00782x    frame=  330 fps=0.5 q=46.0 size=    5121kB time=00:00:04.80 bitrate=8738.2kbits/s speed=0.00784x    frame=  332 fps=0.5 q=46.0 size=    5121kB time=00:00:04.84 bitrate=8666.0kbits/s speed=0.0079x    frame=  333 fps=0.5 q=44.0 size=    5121kB time=00:00:04.86 bitrate=8630.4kbits/s speed=0.00781x    frame=  334 fps=0.5 q=47.0 size=    5121kB time=00:00:04.88 bitrate=8595.0kbits/s speed=0.00783x    frame=  335 fps=0.5 q=47.0 size=    5121kB time=00:00:04.90 bitrate=8559.9kbits/s speed=0.00784x    frame=  338 fps=0.5 q=47.0 size=    5590kB time=00:00:04.96 bitrate=9229.9kbits/s speed=0.00793x    frame=  341 fps=0.5 q=47.0 size=    5590kB time=00:00:05.02 bitrate=9119.6kbits/s speed=0.00799x    frame=  344 fps=0.5 q=47.0 size=    5590kB time=00:00:05.08 bitrate=9011.9kbits/s speed=0.00804x    frame=  345 fps=0.5 q=47.0 size=    5590kB time=00:00:05.10 bitrate=8976.6kbits/s speed=0.00806x    frame=  346 fps=0.5 q=47.0 size=    5590kB time=00:00:05.12 bitrate=8941.5kbits/s speed=0.00808x    frame=  348 fps=0.5 q=47.0 size=    5590kB time=00:00:05.16 bitrate=8872.2kbits/s speed=0.00814x    frame=  349 fps=0.5 q=47.0 size=    5590kB time=00:00:05.18 bitrate=8838.0kbits/s speed=0.00811x    frame=  351 fps=0.5 q=47.0 size=    5590kB time=00:00:05.22 bitrate=8770.3kbits/s speed=0.00816x    frame=  353 fps=0.6 q=47.0 size=    5590kB time=00:00:05.26 bitrate=8703.6kbits/s speed=0.00821x    frame=  354 fps=0.5 q=47.0 size=    5590kB time=00:00:05.28 bitrate=8670.6kbits/s speed=0.00818x    frame=  355 fps=0.5 q=47.0 size=    5590kB time=00:00:05.30 bitrate=8637.9kbits/s speed=0.0082x    frame=  356 fps=0.5 q=47.0 size=    5590kB time=00:00:05.32 bitrate=8605.5kbits/s speed=0.00821x    frame=  358 fps=0.5 q=47.0 size=    5590kB time=00:00:05.36 bitrate=8541.2kbits/s speed=0.0082x    frame=  359 fps=0.5 q=47.0 size=    5590kB time=00:00:05.38 bitrate=8509.5kbits/s speed=0.00822x    frame=  360 fps=0.5 q=47.0 size=    5590kB time=00:00:05.40 bitrate=8478.0kbits/s speed=0.00823x    frame=  363 fps=0.5 q=47.0 size=    5590kB time=00:00:05.46 bitrate=8384.8kbits/s speed=0.00821x    frame=  364 fps=0.5 q=47.0 size=    5590kB time=00:00:05.48 bitrate=8354.2kbits/s speed=0.00823x    frame=  365 fps=0.5 q=47.0 size=    5590kB time=00:00:05.50 bitrate=8323.9kbits/s speed=0.00824x    frame=  368 fps=0.5 q=47.0 size=    5590kB time=00:00:05.56 bitrate=8234.1kbits/s speed=0.00822x    frame=  369 fps=0.5 q=47.0 size=    5590kB time=00:00:05.58 bitrate=8204.6kbits/s speed=0.00822x    frame=  370 fps=0.5 q=47.0 size=    5590kB time=00:00:05.60 bitrate=8175.3kbits/s speed=0.00823x    frame=  372 fps=0.5 q=47.0 size=    5590kB time=00:00:05.64 bitrate=8117.3kbits/s speed=0.00828x    frame=  373 fps=0.5 q=47.0 size=    5590kB time=00:00:05.66 bitrate=8088.6kbits/s speed=0.0082x    frame=  374 fps=0.5 q=47.0 size=    5590kB time=00:00:05.68 bitrate=8060.1kbits/s speed=0.0082x    frame=  375 fps=0.5 q=47.0 size=    5590kB time=00:00:05.70 bitrate=8031.9kbits/s speed=0.00822x    frame=  378 fps=0.5 q=47.0 size=    5590kB time=00:00:05.76 bitrate=7948.2kbits/s speed=0.00824x    frame=  379 fps=0.5 q=47.0 size=    5590kB time=00:00:05.78 bitrate=7920.7kbits/s speed=0.00823x    frame=  380 fps=0.5 q=47.0 size=    5590kB time=00:00:05.80 bitrate=7893.4kbits/s speed=0.00825x    frame=  382 fps=0.5 q=47.0 size=    5590kB time=00:00:05.84 bitrate=7839.3kbits/s speed=0.00817x    frame=  383 fps=0.5 q=47.0 size=    5590kB time=00:00:05.86 bitrate=7812.6kbits/s speed=0.00818x    frame=  384 fps=0.5 q=47.0 size=    5590kB time=00:00:05.88 bitrate=7786.0kbits/s speed=0.0082x    frame=  387 fps=0.5 q=47.0 size=    5590kB time=00:00:05.94 bitrate=7707.4kbits/s speed=0.00822x    frame=  388 fps=0.5 q=47.0 size=    5590kB time=00:00:05.96 bitrate=7681.5kbits/s speed=0.0082x    frame=  389 fps=0.5 q=47.0 size=    5590kB time=00:00:05.98 bitrate=7655.8kbits/s speed=0.00822x    frame=  391 fps=0.5 q=47.0 size=    5590kB time=00:00:06.02 bitrate=7605.0kbits/s speed=0.00815x    frame=  392 fps=0.5 q=47.0 size=    5590kB time=00:00:06.04 bitrate=7579.8kbits/s speed=0.00816x    frame=  393 fps=0.5 q=47.0 size=    5590kB time=00:00:06.06 bitrate=7554.8kbits/s speed=0.00817x    frame=  396 fps=0.5 q=47.0 size=    5590kB time=00:00:06.12 bitrate=7480.7kbits/s speed=0.00819x    frame=  397 fps=0.5 q=47.0 size=    5590kB time=00:00:06.14 bitrate=7456.4kbits/s speed=0.00817x    frame=  398 fps=0.5 q=47.0 size=    5590kB time=00:00:06.16 bitrate=7432.2kbits/s speed=0.00818x    frame=  400 fps=0.5 q=47.0 size=    5590kB time=00:00:06.20 bitrate=7384.2kbits/s speed=0.00822x    frame=  402 fps=0.5 q=47.0 size=    5590kB time=00:00:06.24 bitrate=7336.9kbits/s speed=0.00813x    frame=  403 fps=0.5 q=47.0 size=    5590kB time=00:00:06.26 bitrate=7313.5kbits/s speed=0.00814x    frame=  404 fps=0.5 q=47.0 size=    5590kB time=00:00:06.28 bitrate=7290.2kbits/s speed=0.00815x    frame=  407 fps=0.5 q=47.0 size=    5590kB time=00:00:06.34 bitrate=7221.2kbits/s speed=0.00818x    frame=  408 fps=0.5 q=47.0 size=    5590kB time=00:00:06.36 bitrate=7198.5kbits/s speed=0.00813x    frame=  409 fps=0.5 q=47.0 size=    5590kB time=00:00:06.38 bitrate=7175.9kbits/s speed=0.00815x    frame=  412 fps=0.5 q=47.0 size=    5590kB time=00:00:06.44 bitrate=7109.1kbits/s speed=0.00812x    frame=  413 fps=0.5 q=47.0 size=    5590kB time=00:00:06.46 bitrate=7087.1kbits/s speed=0.00813x    frame=  414 fps=0.5 q=47.0 size=    5590kB time=00:00:06.48 bitrate=7065.2kbits/s speed=0.00814x    frame=  416 fps=0.5 q=47.0 size=    5590kB time=00:00:06.52 bitrate=7021.9kbits/s speed=0.00818x    frame=  417 fps=0.5 q=47.0 size=    5590kB time=00:00:06.54 bitrate=7000.4kbits/s speed=0.00814x    frame=  418 fps=0.5 q=47.0 size=    5590kB time=00:00:06.56 bitrate=6979.1kbits/s speed=0.00814x    frame=  419 fps=0.5 q=47.0 size=    5590kB time=00:00:06.58 bitrate=6957.8kbits/s speed=0.00815x    frame=  421 fps=0.5 q=47.0 size=    5590kB time=00:00:06.62 bitrate=6915.8kbits/s speed=0.00809x    frame=  422 fps=0.5 q=47.0 size=    5590kB time=00:00:06.64 bitrate=6895.0kbits/s speed=0.00811x    frame=  423 fps=0.5 q=47.0 size=    5590kB time=00:00:06.66 bitrate=6874.3kbits/s speed=0.00811x    frame=  426 fps=0.5 q=47.0 size=    5590kB time=00:00:06.72 bitrate=6812.9kbits/s speed=0.00813x    frame=  427 fps=0.5 q=47.0 size=    5590kB time=00:00:06.74 bitrate=6792.7kbits/s speed=0.00811x    frame=  428 fps=0.5 q=47.0 size=    5590kB time=00:00:06.76 bitrate=6772.6kbits/s speed=0.00813x    frame=  430 fps=0.5 q=47.0 size=    5590kB time=00:00:06.80 bitrate=6732.8kbits/s speed=0.00808x    frame=  431 fps=0.5 q=47.0 size=    5590kB time=00:00:06.82 bitrate=6713.0kbits/s speed=0.00809x    frame=  432 fps=0.5 q=47.0 size=    5590kB time=00:00:06.84 bitrate=6693.4kbits/s speed=0.00811x    frame=  436 fps=0.5 q=47.0 size=    5590kB time=00:00:06.92 bitrate=6616.0kbits/s speed=0.00807x    frame=  437 fps=0.5 q=47.0 size=    5590kB time=00:00:06.94 bitrate=6597.0kbits/s speed=0.00807x    frame=  438 fps=0.5 q=47.0 size=    5590kB time=00:00:06.96 bitrate=6578.0kbits/s speed=0.00808x    frame=  440 fps=0.5 q=47.0 size=    5590kB time=00:00:07.00 bitrate=6540.4kbits/s speed=0.0081x    frame=  441 fps=0.5 q=47.0 size=    5590kB time=00:00:07.02 bitrate=6521.8kbits/s speed=0.00811x    frame=  442 fps=0.5 q=47.0 size=    5590kB time=00:00:07.04 bitrate=6503.3kbits/s speed=0.00811x    frame=  443 fps=0.5 q=47.0 size=    5590kB time=00:00:07.06 bitrate=6484.9kbits/s speed=0.00811x    frame=  444 fps=0.5 q=47.0 size=    5590kB time=00:00:07.08 bitrate=6466.5kbits/s speed=0.00811x    frame=  445 fps=0.5 q=47.0 size=    5590kB time=00:00:07.10 bitrate=6448.3kbits/s speed=0.00806x    frame=  446 fps=0.5 q=47.0 size=    5590kB time=00:00:07.12 bitrate=6430.2kbits/s speed=0.00807x    frame=  447 fps=0.5 q=47.0 size=    5590kB time=00:00:07.14 bitrate=6412.2kbits/s speed=0.00808x    frame=  449 fps=0.5 q=47.0 size=    5590kB time=00:00:07.18 bitrate=6376.5kbits/s speed=0.00806x    frame=  450 fps=0.5 q=47.0 size=    5590kB time=00:00:07.20 bitrate=6358.8kbits/s speed=0.00807x    frame=  451 fps=0.5 q=47.0 size=    5590kB time=00:00:07.22 bitrate=6341.2kbits/s speed=0.00807x    frame=  455 fps=0.5 q=47.0 size=    5590kB time=00:00:07.30 bitrate=6271.7kbits/s speed=0.00804x    frame=  456 fps=0.5 q=47.0 size=    5590kB time=00:00:07.32 bitrate=6254.6kbits/s speed=0.00805x    frame=  457 fps=0.5 q=47.0 size=    5590kB time=00:00:07.34 bitrate=6237.5kbits/s speed=0.00806x    frame=  458 fps=0.5 q=47.0 size=    5590kB time=00:00:07.36 bitrate=6220.6kbits/s speed=0.00808x    frame=  459 fps=0.5 q=47.0 size=    5590kB time=00:00:07.38 bitrate=6203.7kbits/s speed=0.00807x    frame=  460 fps=0.5 q=47.0 size=    5590kB time=00:00:07.40 bitrate=6186.9kbits/s speed=0.00807x    frame=  461 fps=0.5 q=47.0 size=    5590kB time=00:00:07.42 bitrate=6170.3kbits/s speed=0.00808x    frame=  462 fps=0.5 q=47.0 size=    5590kB time=00:00:07.44 bitrate=6153.7kbits/s speed=0.00807x    frame=  464 fps=0.5 q=47.0 size=    5590kB time=00:00:07.48 bitrate=6120.8kbits/s speed=0.0081x    frame=  465 fps=0.5 q=47.0 size=    5590kB time=00:00:07.50 bitrate=6104.5kbits/s speed=0.00804x    frame=  466 fps=0.5 q=46.0 size=    5590kB time=00:00:07.52 bitrate=6088.2kbits/s speed=0.00805x    frame=  467 fps=0.5 q=46.0 size=    5590kB time=00:00:07.54 bitrate=6072.1kbits/s speed=0.00806x    frame=  469 fps=0.5 q=46.0 size=    5590kB time=00:00:07.58 bitrate=6040.0kbits/s speed=0.00806x    frame=  470 fps=0.5 q=46.0 size=    5590kB time=00:00:07.60 bitrate=6024.2kbits/s speed=0.00807x    frame=  471 fps=0.5 q=46.0 size=    5590kB time=00:00:07.62 bitrate=6008.3kbits/s speed=0.00808x    frame=  473 fps=0.5 q=46.0 size=    5590kB time=00:00:07.66 bitrate=5977.0kbits/s speed=0.00803x    frame=  474 fps=0.5 q=46.0 size=    5590kB time=00:00:07.68 bitrate=5961.4kbits/s speed=0.00804x    frame=  475 fps=0.5 q=46.0 size=    5590kB time=00:00:07.70 bitrate=5945.9kbits/s speed=0.00806x    frame=  477 fps=0.5 q=46.0 size=    5590kB time=00:00:07.74 bitrate=5915.2kbits/s speed=0.00806x    frame=  478 fps=0.5 q=46.0 size=    5590kB time=00:00:07.76 bitrate=5900.0kbits/s speed=0.00807x    frame=  479 fps=0.5 q=46.0 size=    5590kB time=00:00:07.78 bitrate=5884.8kbits/s speed=0.00809x    frame=  480 fps=0.5 q=46.0 size=    5590kB time=00:00:07.80 bitrate=5869.7kbits/s speed=0.00802x    frame=  481 fps=0.5 q=46.0 size=    5590kB time=00:00:07.82 bitrate=5854.7kbits/s speed=0.00804x    frame=  482 fps=0.5 q=46.0 size=    5590kB time=00:00:07.84 bitrate=5839.8kbits/s speed=0.00805x    frame=  483 fps=0.5 q=46.0 size=    5590kB time=00:00:07.86 bitrate=5824.9kbits/s speed=0.00805x    frame=  484 fps=0.5 q=46.0 size=    5590kB time=00:00:07.88 bitrate=5810.1kbits/s speed=0.00806x    frame=  485 fps=0.5 q=46.0 size=    5590kB time=00:00:07.90 bitrate=5795.4kbits/s speed=0.00807x    frame=  486 fps=0.5 q=46.0 size=    5590kB time=00:00:07.92 bitrate=5780.8kbits/s speed=0.00807x    frame=  487 fps=0.5 q=46.0 size=    5590kB time=00:00:07.94 bitrate=5766.2kbits/s speed=0.00801x    frame=  488 fps=0.5 q=46.0 size=    5590kB time=00:00:07.96 bitrate=5751.7kbits/s speed=0.00803x    frame=  489 fps=0.5 q=46.0 size=    5590kB time=00:00:07.98 bitrate=5737.3kbits/s speed=0.00804x    frame=  490 fps=0.5 q=46.0 size=    5590kB time=00:00:08.00 bitrate=5723.0kbits/s speed=0.00804x    frame=  491 fps=0.5 q=46.0 size=    5590kB time=00:00:08.02 bitrate=5708.7kbits/s speed=0.00804x    frame=  492 fps=0.5 q=46.0 size=    5590kB time=00:00:08.04 bitrate=5694.5kbits/s speed=0.00806x    frame=  493 fps=0.5 q=46.0 size=    5590kB time=00:00:08.06 bitrate=5680.4kbits/s speed=0.00806x    frame=  494 fps=0.5 q=46.0 size=    5590kB time=00:00:08.08 bitrate=5666.3kbits/s speed=0.00801x    frame=  495 fps=0.5 q=46.0 size=    5590kB time=00:00:08.10 bitrate=5652.3kbits/s speed=0.00802x    frame=  496 fps=0.5 q=46.0 size=    5590kB time=00:00:08.12 bitrate=5638.4kbits/s speed=0.00803x    frame=  498 fps=0.5 q=46.0 size=    5590kB time=00:00:08.16 bitrate=5610.8kbits/s speed=0.00802x    frame=  499 fps=0.5 q=46.0 size=    5590kB time=00:00:08.18 bitrate=5597.1kbits/s speed=0.00803x    frame=  500 fps=0.5 q=46.0 size=    5590kB time=00:00:08.20 bitrate=5583.4kbits/s speed=0.00804x    frame=  500 fps=0.4 q=-1.0 Lsize=   10957kB time=00:00:09.94 bitrate=9029.0kbits/s speed=0.008x    
video:10952kB audio:0kB subtitle:0kB other streams:0kB global headers:0kB muxing overhead: 0.040740%
bench: utime=4757.336s
bench: maxrss=4868056kB
[libx264 @ 0x43ff1c0] frame I:2     Avg QP:37.51  size:321724
[libx264 @ 0x43ff1c0] frame P:108   Avg QP:47.31  size: 45796
[libx264 @ 0x43ff1c0] frame B:390   Avg QP:48.32  size: 14423
[libx264 @ 0x43ff1c0] consecutive B-frames:  0.6%  0.4%  3.6% 32.8% 41.0% 21.6%  0.0%  0.0%  0.0%  0.0%  0.0%  0.0%  0.0%  0.0%  0.0%  0.0%  0.0%
[libx264 @ 0x43ff1c0] mb I  I16..4: 19.6% 71.2%  9.2%
[libx264 @ 0x43ff1c0] mb P  I16..4:  1.3%  1.9%  0.0%  P16..4: 32.3% 18.8%  4.3%  0.1%  0.0%    skip:41.3%
[libx264 @ 0x43ff1c0] mb B  I16..4:  0.0%  0.1%  0.0%  B16..8: 37.3%  4.7%  0.1%  direct: 0.2%  skip:57.6%  L0:45.6% L1:53.7% BI: 0.7%
[libx264 @ 0x43ff1c0] final ratefactor: 38.42
[libx264 @ 0x43ff1c0] 8x8 transform intra:63.0% inter:89.2%
[libx264 @ 0x43ff1c0] direct mvs  spatial:99.2% temporal:0.8%
[libx264 @ 0x43ff1c0] coded y,uvDC,uvAC intra: 32.0% 44.9% 15.2% inter: 1.1% 3.1% 0.0%
[libx264 @ 0x43ff1c0] i16 v,h,dc,p: 28% 23%  2% 47%
[libx264 @ 0x43ff1c0] i8 v,h,dc,ddl,ddr,vr,hd,vl,hu:  4%  2%  3% 13% 18% 16% 18% 14% 13%
[libx264 @ 0x43ff1c0] i4 v,h,dc,ddl,ddr,vr,hd,vl,hu:  5%  3%  9% 16% 17% 13% 14% 10% 14%
[libx264 @ 0x43ff1c0] i8c dc,h,v,p: 47% 21% 15% 18%
[libx264 @ 0x43ff1c0] Weighted P-Frames: Y:0.0% UV:0.0%
[libx264 @ 0x43ff1c0] ref P L0: 56.9%  5.4% 14.8%  4.4%  3.6%  3.3%  2.9%  1.3%  1.1%  1.0%  1.0%  0.9%  1.0%  1.0%  1.0%  0.5%
[libx264 @ 0x43ff1c0] ref B L0: 95.2%  2.2%  0.9%  0.3%  0.3%  0.2%  0.2%  0.1%  0.1%  0.1%  0.1%  0.1%  0.1%  0.1%  0.1%
[libx264 @ 0x43ff1c0] ref B L1: 99.0%  1.0%
[libx264 @ 0x43ff1c0] kb/s:8971.49
